<svg width="46" height="50" viewBox="0 0 46 50" fill="none" xmlns="http://www.w3.org/2000/svg">
<g clip-path="url(#clip0)">
<path fill-rule="evenodd" clip-rule="evenodd" d="M24.7074 44.0609C24.6318 44.0201 24.6931 43.9067 24.8258 43.6719C25.0514 43.2732 25.3255 42.9924 25.4782 42.5737C25.5661 42.3315 25.5657 42.1237 25.6359 41.8946C25.71 41.6537 25.843 41.5592 25.9718 41.3602C26.3474 40.7795 26.0501 40.6958 26.7588 40.4379C27.3202 40.2339 27.0137 39.7986 27.7066 39.6806C28.1357 39.6077 28.6112 39.3779 29.0384 39.298C29.6708 39.1801 29.4005 39.177 29.6758 39.0948C29.9052 39.0262 30.0094 39.2182 30.1782 39.3231C30.3737 39.445 30.619 39.4149 30.828 39.5082C31.0775 39.6196 31.9242 40.7309 32.7243 41.0702C32.9167 41.152 33.0802 41.1296 33.1828 41.307C30.6795 42.8424 27.7968 43.8188 24.7074 44.0609ZM23 1.99207C21.1144 1.99207 19.2829 2.2215 17.5296 2.65105C17.5172 2.56969 17.5141 2.59784 17.5681 2.5053C17.5793 2.2134 17.624 1.95698 17.5916 1.6566C17.5438 1.21471 17.4725 1.29761 17.2257 1.11831C17.3337 0.974869 17.4428 0.705338 17.4833 0.530663C17.5797 0.113064 17.4617 0.148538 17.2072 0.00933838H16.8644C15.8021 0.417298 15.622 1.07744 14.8581 1.82472C14.6426 2.03564 14.3989 2.2107 14.1799 2.42047C13.7588 2.82303 13.3489 3.32546 13.0142 3.80244C12.6818 4.27672 12.5962 4.43675 12.4424 4.56669C5.10682 8.3837 0.097168 16.054 0.097168 24.8949C0.097168 32.8004 4.10235 39.7704 10.1944 43.8862L10.2029 43.894C9.35185 44.2792 8.3705 44.861 7.53261 45.3145C6.56245 45.8397 6.83121 45.8266 6.3068 45.3237C5.52828 44.5769 5.43535 44.9412 5.0887 45.2536C4.01173 46.2241 2.98451 47.224 1.89906 48.1987C1.53621 48.525 1.13481 48.825 0.780829 49.1489H0.880698C1.09393 49.0656 6.31721 48.0595 6.57556 48.0167C8.26871 47.7353 6.45911 46.526 7.41307 46.0537C8.18966 45.6692 8.92075 45.2648 9.68076 44.8499C10.4385 44.4365 10.6262 44.268 10.8823 44.3316C14.3974 46.5276 18.5502 47.7981 23 47.7981C27.6931 47.7981 32.0557 46.3853 35.688 43.9638C35.7582 43.9491 35.8249 43.9499 35.8843 43.9722C36.4978 44.2048 38.0405 46.41 39.7796 46.9486C39.7406 46.8812 38.3139 45.4252 38.1219 45.2262C37.729 44.8194 36.6165 43.422 36.5768 43.3884C36.6023 43.351 36.6293 43.3156 36.6582 43.2809C42.2686 39.1068 45.9032 32.4252 45.9032 24.8949C45.9032 20.026 44.3824 15.5126 41.7916 11.8016C41.8163 11.4295 42.7363 10.7578 43.1069 8.87726C43.2245 8.27959 42.8343 8.13229 42.4475 8.52406C42.2898 8.68331 41.9057 9.14911 41.8232 9.36504L41.748 9.4572C41.7218 9.29602 41.7176 9.40244 41.775 9.30682C41.3709 8.77971 41.0543 9.82313 40.7463 9.9577C40.6225 10.0113 40.5673 9.65578 40.2808 9.59254C40.1324 9.55938 40.0472 9.54859 39.9874 9.53393C35.7968 4.90216 29.7383 1.99207 23 1.99207ZM23.1886 5.83916C21.8822 5.83916 20.6066 5.97026 19.3739 6.21974C19.3442 6.22591 19.3145 6.23208 19.2848 6.23825C18.7002 6.35932 18.1257 6.50701 17.5619 6.68053C17.4208 6.80199 17.5727 6.97666 17.6996 7.41624C17.8064 7.78603 17.6506 7.99579 17.5947 8.3382C17.5481 8.6247 17.6803 8.75387 17.7956 8.99371C18.1214 9.66966 17.5207 10.3425 17.6248 10.673C17.749 11.0659 18.5082 10.8673 18.0779 12.0102C18.0073 12.1976 17.7813 12.5127 17.8122 12.702C17.8446 12.8971 18.1627 13.0236 18.3088 13.1389C18.7924 13.521 18.6686 14.2309 19.05 14.5513C19.2354 14.7075 19.5497 14.7788 19.6607 14.9797C19.8034 15.2384 19.7849 15.4378 20.0166 15.6981C20.1944 15.897 20.425 15.9942 20.5418 16.2437C20.6702 16.5186 20.7142 16.6968 20.9116 16.9474C21.689 17.9353 21.6134 18.6189 22.0603 18.9837C22.2758 19.1596 22.5323 18.9051 22.7312 18.7801C23.5788 18.2472 24.5081 17.6403 25.3899 17.1814C29.5952 14.9924 33.0421 14.9172 33.5268 14.6874C33.6463 14.6307 34.473 13.8326 34.6546 13.6718C35.0321 13.3367 35.4247 12.9997 35.8403 12.7124C36.1974 12.4656 36.2101 12.5154 36.5811 12.3762C36.7588 12.3094 37.0064 12.0245 37.1371 11.8753C37.1317 11.8691 37.1263 11.8625 37.1209 11.8564C33.6305 8.15234 28.6798 5.83916 23.1886 5.83916ZM8.59569 12.5952C5.75964 15.9337 4.04798 20.2566 4.04798 24.9801C4.04798 32.1911 8.03619 38.4702 13.9269 41.7335C14.1521 41.7709 14.3418 41.6475 14.8007 41.3876C15.4107 41.0421 16.1152 40.7359 16.6438 40.2836C14.9218 37.9006 12.7995 37.2178 11.2123 35.7606C10.8919 35.4668 10.5595 35.3476 10.2511 35.0785C9.9044 34.7762 9.79836 34.4982 9.55621 34.1299C9.02756 33.3263 8.64505 32.8493 8.50778 31.8418C8.46883 31.5561 8.61767 31.4431 8.56446 31.059C8.45534 30.2713 8.5552 30.7698 8.72024 30.6437C8.87216 30.5277 8.69325 29.9778 8.95198 29.7349C9.26586 29.4403 9.139 29.0042 9.24619 28.6186C9.34568 28.2608 9.55274 28.0549 9.48179 27.6538C9.42279 27.3215 9.23154 26.8248 9.48333 26.5156C9.87047 26.0397 10.1554 27.4125 10.7909 27.2829C11.2413 27.1911 11.2521 26.9436 11.4992 26.6235C11.7348 26.3185 12.0433 26.0633 12.2932 25.7741C12.877 25.0981 12.9252 24.0219 12.4304 23.2812C12.1081 22.7984 11.2324 22.0831 10.7739 21.6513C10.2044 21.1145 9.6368 20.5758 9.07267 20.0337C8.44492 19.4306 7.89121 18.9984 7.68414 18.1026C7.39418 16.8479 7.78556 15.0321 8.18156 13.7844C8.21781 13.6694 8.58682 12.7529 8.59569 12.5952ZM14.6549 42.1164C17.2242 43.3985 20.1219 44.1211 23.1886 44.1211C23.4608 44.1211 23.7311 44.1141 24.0006 44.1026C24.1059 44.0432 24.0924 43.8997 24.1402 43.5512C24.3762 41.8337 24.5551 38.4173 24.5964 36.7304C24.2335 36.8584 20.622 38.9491 19.9206 39.3324C19.4244 39.6034 18.8691 39.9644 18.3659 40.1949C18.4384 40.51 19.9272 42.6624 20.1404 43.1779C20.0868 43.1563 18.8587 42.0026 18.7561 41.8877C18.8737 42.2517 19.5505 43.2142 19.5732 43.4783C19.2428 43.3549 18.5186 42.4912 18.2549 42.1946L17.0946 40.7749C16.9832 40.7999 14.8539 41.9745 14.6549 42.1164ZM34.5605 40.3769C38.3671 37.5609 41.0918 33.3668 41.9994 28.5318C41.568 28.6915 40.6344 29.3096 40.1883 29.5614C39.0099 30.2269 39.6072 29.9894 37.8844 30.0603C37.3037 30.0846 37.1568 29.9871 36.6181 30.2489C35.6977 30.6966 34.7711 31.2144 33.8395 31.6706C34.2582 31.6764 34.7499 31.5495 35.1478 31.5908C35.0641 31.7088 33.4716 32.6384 33.2021 32.8011C32.6156 33.1551 32.8026 33.0695 31.8849 33.063C31.5058 33.0607 31.578 33.0676 31.2729 33.2519C31.1449 33.3294 30.907 33.4493 30.8276 33.565C30.8326 33.5893 31.667 35.0627 31.7677 35.2543C32.0711 35.8335 32.3758 36.4123 32.6823 36.9891C33.0872 37.7518 34.124 39.7611 34.5605 40.3769ZM42.112 27.8748C42.1826 27.4113 42.2358 26.942 42.2724 26.4681C41.8857 26.6251 40.8774 27.5675 40.845 27.9897C41.1538 28.0479 41.8055 27.9727 42.112 27.8748ZM42.279 26.3725C42.301 26.0656 42.3164 25.7567 42.3237 25.4455C42.1417 25.646 41.4654 26.3459 41.416 26.524L42.279 26.3725ZM42.328 25.1166C42.3284 25.0711 42.3295 25.0256 42.3295 24.9801C42.3295 21.0231 41.1288 17.3465 39.0716 14.2945C38.8888 14.232 38.3525 14.6577 38.039 14.8424C37.7571 15.0086 37.1487 15.2924 36.9686 15.5157C35.9097 16.8282 35.3182 16.2934 34.999 17.0689C34.7121 17.7652 33.8672 18.0556 33.5487 18.2657C33.3386 18.4046 33.3089 18.5742 33.1809 18.7689C33.0128 19.0254 32.5007 19.5613 32.4282 19.7522C32.336 19.9932 32.3522 20.1648 32.22 20.422C31.9547 20.9391 31.4125 21.467 30.9456 21.7959C30.3722 22.2 30.6487 22.3831 30.3051 22.8991C30.0009 23.3556 29.5432 23.4917 29.3673 23.7362C29.2416 23.9109 29.2297 24.131 29.0932 24.3358C28.5456 25.1563 28.0266 25.1532 27.8134 25.7031C27.678 26.0525 27.6156 25.9773 27.4571 26.2194C27.294 26.4689 27.3912 26.7114 27.3117 26.9451C27.2516 27.1225 27.0245 27.2393 26.9203 27.4232C26.8178 27.6041 26.753 27.8069 26.6335 28.0105C25.7292 29.549 25.5557 28.644 27.289 29.878C28.1099 30.4621 28.8375 31.1327 29.5266 31.8642C29.6673 32.0138 30.4555 32.9361 30.5141 32.9716C30.7239 32.881 31.3042 32.4279 31.5282 32.2667C31.7997 32.0712 31.7657 32.089 31.9339 31.8013C32.0599 31.5858 32.0912 31.4269 32.3183 31.3166C33.0691 30.9522 33.8969 30.5011 34.6542 30.1822L34.6778 30.2065L34.1055 30.9391C34.0199 30.9969 34.0531 30.9445 34.0273 31.0455L34.146 30.9769C34.842 30.6688 35.7077 30.1112 36.3998 29.7307C37.0391 29.3798 36.9825 29.5224 37.3079 28.8611C37.4995 28.4725 37.6873 28.0788 37.8747 27.6878C38.2102 26.9883 38.1323 27.1703 38.8029 26.8364L41.1874 25.7004C41.3848 25.6098 42.2231 25.2894 42.328 25.1166ZM17.87 39.6281C17.6406 39.3061 15.5989 36.3147 15.5009 36.0321C15.4057 35.7571 15.3617 35.3442 15.2896 35.0399C14.9646 33.6687 13.9855 32.4422 14.4691 31.3004C14.8103 30.4953 15.5067 30.8948 16.1198 31.0864C18.625 31.8688 19.7683 32.1368 22.2593 31.7701C22.7139 31.7034 22.7632 31.7573 23.0077 32.1132C23.5553 32.9083 23.9042 33.5708 24.1892 34.5205C24.2848 34.8402 24.3611 35.1672 24.4151 35.4961C24.51 36.0741 24.586 36.0205 24.1097 36.2815C23.7218 36.4944 18.1534 39.5417 17.87 39.6281Z" fill="#1DA1F2"/>
</g>
<defs>
<clipPath id="clip0">
<rect width="46" height="49.1588" fill="white"/>
</clipPath>
</defs>
</svg>
